Coordinates
version=1
nRows=12
nColumns=24
inDegrees=yes

Units are S.I. units (second, meters, Newtons, ...)
Angles are in degrees.

endheader
time	pelvis_tilt	pelvis_list	pelvis_rotation	pelvis_tx	pelvis_ty	pelvis_tz	hip_flexion_r	hip_adduction_r	hip_rotation_r	knee_angle_r	ankle_angle_r	subtalar_angle_r	mtp_angle_r	hip_flexion_l	hip_adduction_l	hip_rotation_l	knee_angle_l	ankle_angle_l	subtalar_angle_l	mtp_angle_l	lumbar_extension	lumbar_bending	lumbar_rotation
      1.36000000	     -8.50112484	     -1.48485349	      7.44733756	     -0.03974340	      1.28134245	     -0.92871602	     32.39152322	      0.23677182	     -2.23735096	    -25.58461882	      2.65241411	    -16.74399118	      2.14735815	      1.53235486	      6.41499287	     19.97285863	     -3.11014852	      1.81624575	    -22.82846977	      1.70264483	     -2.64512396	      2.88488335	     -9.73854692
      1.36500000	     -8.59566504	     -1.39440625	      7.55868578	     -0.03358725	      1.28028492	     -0.92867145	     32.59557954	      0.05443310	     -1.73810493	    -23.92242163	      2.78945722	    -16.72140719	      2.03666918	      1.22178436	      6.49915520	     20.18915634	     -3.23328310	      2.23572919	    -22.97225464	      1.72199328	     -2.59262778	      2.81592786	     -9.87171024
      1.37000000	     -8.58643324	     -1.31095523	      7.69467295	     -0.02746283	      1.27936838	     -0.92854898	     32.57017581	     -0.09281871	     -1.17339487	    -22.06642791	      2.55250279	    -17.13395183	      1.52471957	      0.80608428	      6.54663763	     20.35660301	     -3.35782666	      2.67692280	    -22.87301372	      1.88822750	     -2.66895968	      2.75033587	    -10.03103326
      1.37500000	     -8.65432993	     -1.21863168	      7.88527030	     -0.02129917	      1.27830122	     -0.92854338	     32.60529986	     -0.33176764	     -0.73556118	    -20.23353470	      2.46142144	    -17.15278848	      1.33815044	      0.49598152	      6.63368299	     20.63082725	     -3.53874460	      3.14542062	    -22.89156026	      1.96514900	     -2.64520308	      2.67187187	    -10.24558634
      1.38000000	     -8.69889980	     -1.09698902	      8.03817740	     -0.01502975	      1.27720829	     -0.92839235	     32.53684947	     -0.55983416	     -0.18358696	    -18.30461882	      2.28246526	    -17.29704647	      1.08098581	      0.12317894	      6.72546288	     20.77269130	     -3.66395658	      3.60069089	    -22.77163585	      2.10254419	     -2.64171610	      2.55807438	    -10.46506734
      1.38500000	     -8.78647364	     -0.95758249	      8.24565718	     -0.00877011	      1.27601145	     -0.92832170	     32.49218538	     -0.87040745	      0.25939760	    -16.39996373	      2.08278868	    -17.23725178	      0.95671506	     -0.15618269	      6.86695851	     20.98872808	     -3.89541443	      4.07113434	    -22.72419262	      2.20306924	     -2.58855006	      2.41157139	    -10.67337287
      1.39000000	     -8.89019906	     -0.79211931	      8.44679009	     -0.00243252	      1.27475539	     -0.92817486	     32.43909471	     -1.20661631	      0.71551533	    -14.51870199	      1.87101256	    -17.14111244	      0.85311771	     -0.43438737	      7.02826271	     21.15394697	     -4.11049700	      4.53017834	    -22.61722274	      2.32545235	     -2.50837475	      2.22341906	    -10.90566686
      1.39500000	     -8.99816959	     -0.60552676	      8.65366860	      0.00391925	      1.27344287	     -0.92799282	     32.39039246	     -1.57348624	      1.16371506	    -12.71193575	      1.66185356	    -16.99241016	      0.75931574	     -0.71079398	      7.20843549	     21.27823934	     -4.32651129	      5.00935013	    -22.42907426	      2.48548694	     -2.43276225	      2.01250416	    -11.14435000
      1.40000000	     -9.13784230	     -0.40670313	      8.85687494	      0.01030634	      1.27207148	     -0.92779341	     32.39625248	     -1.96450686	      1.54270540	    -11.02090446	      1.48613377	    -16.70193224	      0.69750325	     -0.93561435	      7.41454469	     21.39595785	     -4.59338893	      5.46912602	    -22.27386518	      2.63087025	     -2.31476834	      1.77654229	    -11.36697686
      1.40500000	     -9.28685930	     -0.20766088	      9.06333825	      0.01673472	      1.27068892	     -0.92756445	     32.42651334	     -2.36092667	      1.86018181	     -9.44523939	      1.33180768	    -16.32396629	      0.63153351	     -1.14758944	      7.61915466	     21.47693454	     -4.87074761	      5.94221694	    -22.06047803	      2.80066235	     -2.18225002	      1.53817212	    -11.59448625
      1.41000000	     -9.44019474	     -0.00936629	      9.26669245	      0.02317624	      1.26929620	     -0.92730008	     32.48359708	     -2.75349782	      2.12331685	     -7.99850893	      1.19689075	    -15.85837397	      0.56130373	     -1.34252403	      7.82516097	     21.52523114	     -5.17514734	      6.41592885	    -21.82883877	      2.97701993	     -2.04731046	      1.29664966	    -11.81637871
      1.41500000	     -9.58194237	      0.19873615	      9.44849425	      0.02966011	      1.26791043	     -0.92695407	     32.56789909	     -3.13341942	      2.33580066	     -6.72531830	      1.13517428	    -15.25291044	      0.42972648	     -1.55246347	      8.02956442	     21.49001337	     -5.48295376	      6.94906990	    -21.41947319	      3.23689126	     -1.92307559	      1.04118639	    -12.03102728
